<svg width="333" height="287" viewBox="0 0 333 287" fill="none" xmlns="http://www.w3.org/2000/svg">
<ellipse cx="125.5" cy="128.5" rx="125.5" ry="128.5" fill="url(#paint0_linear)"/>
<path d="M15.31 149V146.228L21.085 145.15C21.1363 143.199 21.162 141.095 21.162 138.836C21.2133 136.526 21.239 134.524 21.239 132.83V99.027L14.925 98.257V95.562L26.706 92.097L27.784 92.713L27.476 103.647V117.353C29.324 115.3 31.2233 113.811 33.174 112.887C35.1247 111.912 37.178 111.424 39.334 111.424C41.3873 111.424 43.2867 111.86 45.032 112.733C46.8287 113.554 48.3687 114.786 49.652 116.429C50.9867 118.02 52.039 119.997 52.809 122.358C53.579 124.719 53.964 127.389 53.964 130.366C53.964 133.343 53.5533 136.038 52.732 138.451C51.962 140.864 50.8583 142.943 49.421 144.688C47.9837 146.382 46.2897 147.691 44.339 148.615C42.4397 149.539 40.3607 150.001 38.102 150.001C36.3053 150.001 34.483 149.642 32.635 148.923C30.8383 148.153 29.1187 146.716 27.476 144.611L26.86 149.77L15.31 149ZM36.87 145.612C38.256 145.612 39.565 145.33 40.797 144.765C42.029 144.149 43.107 143.251 44.031 142.07C44.955 140.838 45.6737 139.298 46.187 137.45C46.7517 135.602 47.034 133.446 47.034 130.982C47.034 126.003 46.1357 122.23 44.339 119.663C42.5423 117.096 40.181 115.813 37.255 115.813C36.0743 115.813 34.714 116.121 33.174 116.737C31.634 117.353 29.8117 118.534 27.707 120.279V141.377C29.2983 142.866 30.864 143.944 32.404 144.611C33.944 145.278 35.4327 145.612 36.87 145.612ZM58.6135 95.562L70.6255 92.097L71.7035 92.713L71.3955 103.647V132.83C71.3955 134.883 71.3955 136.937 71.3955 138.99C71.4468 141.043 71.4981 143.097 71.5495 145.15L77.7095 146.228V149H58.6135V146.228L64.7735 145.15C64.8248 143.045 64.8505 140.992 64.8505 138.99C64.9018 136.937 64.9275 134.883 64.9275 132.83V99.027L58.6135 98.257V95.562ZM100.721 150.001C98.4624 150.001 96.2807 149.616 94.176 148.846C92.0714 148.025 90.1977 146.818 88.555 145.227C86.9124 143.636 85.5777 141.659 84.551 139.298C83.5757 136.885 83.088 134.088 83.088 130.905C83.088 127.722 83.5757 124.925 84.551 122.512C85.5777 120.048 86.9124 117.995 88.555 116.352C90.1977 114.709 92.0714 113.477 94.176 112.656C96.2807 111.835 98.4624 111.424 100.721 111.424C102.928 111.424 105.084 111.835 107.189 112.656C109.345 113.477 111.244 114.709 112.887 116.352C114.53 117.995 115.864 120.048 116.891 122.512C117.918 124.925 118.431 127.722 118.431 130.905C118.431 134.088 117.918 136.885 116.891 139.298C115.916 141.659 114.581 143.636 112.887 145.227C111.244 146.818 109.345 148.025 107.189 148.846C105.084 149.616 102.928 150.001 100.721 150.001ZM100.721 146.536C104.058 146.536 106.624 145.227 108.421 142.609C110.218 139.991 111.116 136.09 111.116 130.905C111.116 125.669 110.218 121.716 108.421 119.047C106.624 116.326 104.058 114.966 100.721 114.966C97.333 114.966 94.7664 116.326 93.021 119.047C91.2757 121.716 90.403 125.669 90.403 130.905C90.403 136.09 91.2757 139.991 93.021 142.609C94.7664 145.227 97.333 146.536 100.721 146.536ZM140.902 163.861C145.111 163.861 148.319 163.091 150.527 161.551C152.734 160.062 153.838 158.24 153.838 156.084C153.838 154.39 153.247 152.953 152.067 151.772C150.886 150.643 148.91 150.078 146.138 150.078H137.129C136.564 150.078 136.025 150.052 135.512 150.001C134.998 150.001 134.485 149.975 133.972 149.924C132.894 151.105 132.124 152.234 131.662 153.312C131.2 154.39 130.969 155.571 130.969 156.854C130.969 159.369 131.841 161.166 133.587 162.244C135.383 163.322 137.822 163.861 140.902 163.861ZM126.426 124.052C126.426 122.05 126.759 120.279 127.427 118.739C128.145 117.148 129.121 115.813 130.353 114.735C131.636 113.657 133.125 112.836 134.819 112.271C136.513 111.706 138.361 111.424 140.363 111.424C144.418 111.424 147.678 112.425 150.142 114.427L158.843 111.424L159.998 112.194V117.045H152.452C153.632 118.944 154.223 121.28 154.223 124.052C154.223 126.054 153.863 127.851 153.145 129.442C152.477 130.982 151.502 132.291 150.219 133.369C148.987 134.447 147.524 135.268 145.83 135.833C144.136 136.398 142.288 136.68 140.286 136.68C138.284 136.68 136.384 136.398 134.588 135.833C133.304 137.476 132.663 139.118 132.663 140.761C132.663 141.788 132.945 142.609 133.51 143.225C134.126 143.841 135.332 144.149 137.129 144.149H147.216C151.476 144.149 154.608 145.022 156.61 146.767C158.612 148.512 159.613 150.951 159.613 154.082C159.613 155.776 159.202 157.419 158.381 159.01C157.611 160.601 156.43 162.013 154.839 163.245C153.247 164.477 151.245 165.478 148.833 166.248C146.471 167.018 143.725 167.403 140.594 167.403C134.998 167.403 130.943 166.53 128.428 164.785C125.912 163.091 124.655 160.858 124.655 158.086C124.655 156.443 125.194 154.903 126.272 153.466C127.35 152.08 129.326 150.694 132.201 149.308C128.813 148.384 127.119 146.433 127.119 143.456C127.119 142.275 127.504 141.018 128.274 139.683C129.044 138.297 130.404 136.706 132.355 134.909C130.507 133.882 129.044 132.471 127.966 130.674C126.939 128.877 126.426 126.67 126.426 124.052ZM140.44 114.581C137.976 114.581 136.051 115.479 134.665 117.276C133.33 119.021 132.663 121.306 132.663 124.129C132.663 126.952 133.304 129.237 134.588 130.982C135.871 132.727 137.719 133.6 140.132 133.6C142.596 133.6 144.521 132.702 145.907 130.905C147.293 129.057 147.986 126.696 147.986 123.821C147.986 121.049 147.318 118.816 145.984 117.122C144.7 115.428 142.852 114.581 140.44 114.581ZM180.003 163.861C184.213 163.861 187.421 163.091 189.628 161.551C191.836 160.062 192.939 158.24 192.939 156.084C192.939 154.39 192.349 152.953 191.168 151.772C189.988 150.643 188.011 150.078 185.239 150.078H176.23C175.666 150.078 175.127 150.052 174.613 150.001C174.1 150.001 173.587 149.975 173.073 149.924C171.995 151.105 171.225 152.234 170.763 153.312C170.301 154.39 170.07 155.571 170.07 156.854C170.07 159.369 170.943 161.166 172.688 162.244C174.485 163.322 176.923 163.861 180.003 163.861ZM165.527 124.052C165.527 122.05 165.861 120.279 166.528 118.739C167.247 117.148 168.222 115.813 169.454 114.735C170.738 113.657 172.226 112.836 173.92 112.271C175.614 111.706 177.462 111.424 179.464 111.424C183.52 111.424 186.779 112.425 189.243 114.427L197.944 111.424L199.099 112.194V117.045H191.553C192.734 118.944 193.324 121.28 193.324 124.052C193.324 126.054 192.965 127.851 192.246 129.442C191.579 130.982 190.604 132.291 189.32 133.369C188.088 134.447 186.625 135.268 184.931 135.833C183.237 136.398 181.389 136.68 179.387 136.68C177.385 136.68 175.486 136.398 173.689 135.833C172.406 137.476 171.764 139.118 171.764 140.761C171.764 141.788 172.047 142.609 172.611 143.225C173.227 143.841 174.434 144.149 176.23 144.149H186.317C190.578 144.149 193.709 145.022 195.711 146.767C197.713 148.512 198.714 150.951 198.714 154.082C198.714 155.776 198.304 157.419 197.482 159.01C196.712 160.601 195.532 162.013 193.94 163.245C192.349 164.477 190.347 165.478 187.934 166.248C185.573 167.018 182.827 167.403 179.695 167.403C174.1 167.403 170.045 166.53 167.529 164.785C165.014 163.091 163.756 160.858 163.756 158.086C163.756 156.443 164.295 154.903 165.373 153.466C166.451 152.08 168.428 150.694 171.302 149.308C167.914 148.384 166.22 146.433 166.22 143.456C166.22 142.275 166.605 141.018 167.375 139.683C168.145 138.297 169.506 136.706 171.456 134.909C169.608 133.882 168.145 132.471 167.067 130.674C166.041 128.877 165.527 126.67 165.527 124.052ZM179.541 114.581C177.077 114.581 175.152 115.479 173.766 117.276C172.432 119.021 171.764 121.306 171.764 124.129C171.764 126.952 172.406 129.237 173.689 130.982C174.973 132.727 176.821 133.6 179.233 133.6C181.697 133.6 183.622 132.702 185.008 130.905C186.394 129.057 187.087 126.696 187.087 123.821C187.087 121.049 186.42 118.816 185.085 117.122C183.802 115.428 181.954 114.581 179.541 114.581ZM208.674 168.173C206.723 168.173 205.055 167.685 203.669 166.71C202.283 165.786 201.59 164.58 201.59 163.091C201.847 161.962 202.463 161.115 203.438 160.55C204.465 159.985 205.568 159.703 206.749 159.703C207.776 159.703 208.725 159.908 209.598 160.319C210.471 160.781 211.42 161.551 212.447 162.629L212.832 163.014C214.475 161.628 215.861 159.96 216.99 158.009C218.119 156.058 219.043 154.031 219.762 151.926L220.07 151.002L206.133 115.813L201.898 115.197V112.425H220.378V115.274L213.602 116.044L223.227 142.301L232.698 116.121L225.999 115.197V112.425H241.014V115.197L236.856 116.044L224.459 148.769C223.176 152.157 221.918 155.083 220.686 157.547C219.505 160.011 218.273 162.013 216.99 163.553C215.758 165.144 214.449 166.299 213.063 167.018C211.728 167.788 210.265 168.173 208.674 168.173Z" fill="white"/>
<defs>
<linearGradient id="paint0_linear" x1="125.5" y1="0" x2="125.5" y2="257" gradientUnits="userSpaceOnUse">
<stop stop-color="#00F0FF"/>
<stop offset="1" stop-color="#920095"/>
</linearGradient>
</defs>
</svg>
